<svg width="500" height="500" viewBox="0 0 500 500" fill="none" xmlns="http://www.w3.org/2000/svg">
<g clip-path="url(#clip0_1237_1892)">
<circle cx="250" cy="250" r="250" fill="#0F0F0F"/>
<path d="M234.099 98.0009C200.837 98.0009 171.286 119.419 160.985 151.032C150.414 153.211 140.429 157.617 131.693 163.955C122.957 170.294 115.672 178.421 110.321 187.794C93.6392 216.627 97.4485 252.874 119.797 277.587C112.898 298.287 115.266 320.939 126.285 339.682C142.865 368.617 176.226 383.446 208.872 376.546C216.019 384.613 224.805 391.063 234.642 395.467C244.48 399.871 255.143 402.127 265.921 402.084C299.183 402.084 328.735 380.666 339.035 349.052C360.454 344.623 378.887 331.235 389.596 312.291C406.381 283.458 402.572 247.211 380.226 222.498V222.396C383.635 212.164 384.819 201.322 383.701 190.596C382.582 179.87 379.185 169.506 373.739 160.198C357.155 131.365 323.79 116.533 291.251 123.433C284.07 115.387 275.261 108.959 265.408 104.574C255.556 100.19 244.884 97.9493 234.099 98.0009ZM234.099 117.774L233.997 117.876C247.385 117.876 260.258 122.51 270.555 131.059C270.142 131.263 269.318 131.778 268.701 132.088L208.153 166.996C205.062 168.747 203.209 172.042 203.209 175.647V257.614L177.156 242.581V174.823C177.151 159.708 183.145 145.21 193.822 134.513C204.499 123.815 218.985 117.797 234.099 117.774ZM307.039 141.637C317.073 141.618 326.934 144.248 335.625 149.261C344.317 154.274 351.531 161.493 356.538 170.189C363.128 181.722 365.598 195.212 363.332 208.289C362.92 207.979 362.099 207.571 361.581 207.26L301.033 172.247C299.51 171.385 297.79 170.932 296.04 170.932C294.29 170.932 292.569 171.385 291.046 172.247L220.095 213.23V183.16L278.688 149.281C287.303 144.286 297.081 141.649 307.039 141.633V141.637ZM157.281 172.761V244.741C157.281 248.346 159.135 251.538 162.226 253.392L233.071 294.273L206.912 309.408L148.422 275.631C135.351 268.056 125.82 255.604 121.92 241.008C118.021 226.412 120.072 210.866 127.624 197.781C134.286 186.234 144.778 177.385 157.281 172.761ZM293.002 190.574L351.594 224.351C378.884 240.107 388.148 274.913 372.392 302.202L372.495 302.304C365.803 313.838 355.298 322.694 342.837 327.225V255.242C342.837 251.637 340.984 248.342 337.893 246.594L266.946 205.607L293.002 190.574ZM249.957 215.394L279.823 232.692V267.188L249.957 284.487L220.095 267.188V232.692L249.957 215.394ZM296.913 242.581L322.966 257.614V325.27C322.966 356.781 297.428 382.319 266.023 382.319V382.216C252.738 382.216 239.762 377.582 229.568 369.037C229.98 368.833 230.907 368.314 231.421 368.004L291.969 333.096C295.06 331.345 297.016 328.05 296.91 324.445L296.913 242.581ZM279.921 286.859V316.925L221.329 350.702C194.039 366.355 159.234 357.087 143.478 329.9H143.58C136.888 318.468 134.517 304.877 136.783 291.799C137.195 292.109 138.019 292.518 138.534 292.828L199.082 327.842C200.605 328.703 202.325 329.156 204.075 329.156C205.825 329.156 207.546 328.703 209.069 327.842L279.921 286.859Z" fill="white"/>
</g>
<defs>
<clipPath id="clip0_1237_1892">
<rect width="500" height="500" fill="white"/>
</clipPath>
</defs>
</svg>
